<?xml version="1.0" encoding="utf-8"?>
<!-- Generator: Adobe Illustrator 20.0.0, SVG Export Plug-In . SVG Version: 6.00 Build 0)  -->
<svg version="1.1" id="Layer_1" xmlns:sketch="http://www.bohemiancoding.com/sketch/ns"
	 xmlns="http://www.w3.org/2000/svg" xmlns:xlink="http://www.w3.org/1999/xlink" x="0px" y="0px" viewBox="0 0 300 128.6"
	 style="enable-background:new 0 0 300 128.6;" xml:space="preserve">
<style type="text/css">
	.st0{fill:#1A1918;}
	.st1{fill:#FFFFFF;}
</style>
<title>Group</title>
<desc>Created with Sketch.</desc>
<g id="Page-1" sketch:type="MSPage">
	<g id="Group" sketch:type="MSLayerGroup">
		<g>
			<path id="Fill-1" sketch:type="MSShapeGroup" class="st0" d="M150.4,4.7h2.3l16.6,24v-24h2.2v27.9h-2.1L152.5,8.3v24.2h-2.1V4.7"
				/>
			<path id="Fill-2" sketch:type="MSShapeGroup" class="st0" d="M189.6,20.1c0-3-1.6-6.1-5.4-6.1c-3.5,0-5.5,2.7-6,6.1H189.6
				L189.6,20.1z M175.8,22.4c0-5.6,3.3-10.2,8.6-10.2c5.1,0,7.9,4.1,7.5,9.8h-13.7v0.5c0,4.6,2,8.7,6.7,8.7c2.5,0,4.7-1,5.8-1.9
				l0.9,1.7c-1.3,0.9-3.5,2-6.8,2C178.6,33,175.8,28.1,175.8,22.4L175.8,22.4z"/>
			<path id="Fill-3" sketch:type="MSShapeGroup" class="st0" d="M194.1,12.6h2.3l4.8,16.6l5.2-16.6h2.1l5.2,16.6l4.9-16.6h2.2
				l-6,19.9h-2l-5.4-16.8l-5.4,16.8h-2L194.1,12.6"/>
			<path id="Fill-4" sketch:type="MSShapeGroup" class="st0" d="M240.1,22.1l-9.3-17.4h2.6l7.9,15.1h0.1l7.9-15.1h2.3l-9.2,17.4
				v10.5h-2.3V22.1"/>
			<path id="Fill-5" sketch:type="MSShapeGroup" class="st0" d="M265.5,22.6c0-4.5-2.4-8.6-6.9-8.6c-4.5,0-6.6,4-6.6,8.5
				c0,4.5,2.2,8.6,6.7,8.6C263.2,31.1,265.5,27.1,265.5,22.6L265.5,22.6z M249.7,22.6c0-5,2.7-10.5,8.9-10.5c6.3,0,9.1,5.4,9.1,10.4
				c0,5-2.8,10.5-9.1,10.5C252.4,33,249.7,27.6,249.7,22.6L249.7,22.6z"/>
			<path id="Fill-6" sketch:type="MSShapeGroup" class="st0" d="M271.9,12.6h2.2v3.5c0.8-1.5,2.5-3.9,5.3-3.9c0.9,0,1.6,0.2,1.9,0.3
				l-0.5,2c-0.3-0.1-0.8-0.3-1.6-0.3c-2.8,0-4.5,3.3-5.1,4.4v13.9h-2.2V12.6"/>
			<path id="Fill-7" sketch:type="MSShapeGroup" class="st0" d="M287.7,21.4l8.7-8.7h2.7l-8.8,8.7l9.3,11.2h-2.7L287.7,21.4
				L287.7,21.4z M285.4,2.5h2.2v30.1h-2.2V2.5z"/>
			<path id="Fill-8" sketch:type="MSShapeGroup" class="st0" d="M156.2,60.7c5.3,0,7.5-2.4,7.5-6.1c0-3.5-2.1-6-7.4-6h-3.5v12.1
				H156.2L156.2,60.7z M150.4,46.6h6c5.8,0,9.5,2.9,9.5,7.9c0,5-3.5,8.2-9.8,8.2h-3.5v11.8h-2.3V46.6L150.4,46.6z"/>
			<path id="Fill-9" sketch:type="MSShapeGroup" class="st0" d="M169.5,68.6V54.5h2.2v13.6c0,2.9,1,4.8,4.1,4.8c3,0,5.4-2.8,6.1-4
				V54.5h2.2v16.1c0,1.6,0.2,3.1,0.4,3.8h-2.2c-0.1-0.7-0.3-2.2-0.3-3.3c-1,1.5-3.2,3.7-6.6,3.7C171.1,74.9,169.5,72.2,169.5,68.6"
				/>
			<path id="Fill-10" sketch:type="MSShapeGroup" class="st0" d="M203,64.5c0-4.3-1.7-8.5-6.5-8.5c-1.7,0-3.7,1-4.8,2.3v14
				c0.9,0.5,2.3,0.8,3.9,0.8C200.5,73,203,68.7,203,64.5L203,64.5z M189.5,73.4V44.4h2.2v12c1.2-1.4,3.2-2.3,5.2-2.3
				c5.7,0,8.4,4.6,8.4,10.4c0,5.6-3.8,10.5-9.8,10.5C193,74.9,190.8,74.3,189.5,73.4L189.5,73.4z"/>
			<path id="Fill-11" sketch:type="MSShapeGroup" class="st0" d="M209.7,44.4h2.2v30.1h-2.2V44.4z"/>
			<path id="Fill-12" sketch:type="MSShapeGroup" class="st0" d="M218.4,54.5h2.2v19.9h-2.2V54.5z M217.8,48.6c0-1,0.8-1.7,1.6-1.7
				c0.9,0,1.7,0.7,1.7,1.7c0,1-0.8,1.7-1.7,1.7C218.6,50.3,217.8,49.6,217.8,48.6L217.8,48.6z"/>
			<path id="Fill-13" sketch:type="MSShapeGroup" class="st0" d="M224.7,64.5c0-6.3,3.6-10.4,8.8-10.4c3,0,4.8,1.1,5.9,2.1l-1.1,1.6
				c-1.1-1-2.6-1.8-4.8-1.8c-4.4,0-6.4,3.8-6.4,8.4c0,4.4,2,8.7,6.4,8.7c2.3,0,4.2-1,5.1-1.8l1,1.6c-1.1,1-3.2,2-6.2,2
				C227.6,74.9,224.7,69.8,224.7,64.5"/>
			<path id="Fill-14" sketch:type="MSShapeGroup" class="st0" d="M149.8,116.4V88.5h5.9v23.1h10.3v4.8H149.8"/>
			<path id="Fill-15" sketch:type="MSShapeGroup" class="st0" d="M170.5,96h5.6v20.4h-5.6V96z M173.3,93.4c-2,0-3.4-1.5-3.4-3.3
				c0-1.8,1.4-3.3,3.4-3.3c2,0,3.4,1.5,3.4,3.3C176.7,91.8,175.2,93.4,173.3,93.4L173.3,93.4z"/>
			<path id="Fill-16" sketch:type="MSShapeGroup" class="st0" d="M186.5,112.1c0.4,0.1,1.3,0.5,2.8,0.5c3.1,0,4.9-2.3,4.9-6.5
				c0-3.8-1.3-6.1-4.3-6.1c-1.8,0-3.1,1.1-3.4,1.5V112.1L186.5,112.1z M186.5,86.3v11.3c0.9-0.9,2.7-2.1,5-2.1
				c5.1,0,8.6,3.5,8.6,10.5c0,6.9-4.7,10.8-10.8,10.8c-4.6,0-7.4-1.2-8.3-1.6v-29H186.5L186.5,86.3z"/>
			<path id="Fill-17" sketch:type="MSShapeGroup" class="st0" d="M215.7,100.9c-0.3-0.2-1-0.5-2.1-0.5c-2.5,0-3.9,2.2-4.4,3.1v12.8
				h-5.5V96h5.5v2.8c0.9-1.5,2.5-3.3,5.1-3.3c1.5,0,2.3,0.3,2.8,0.5L215.7,100.9"/>
			<path id="Fill-18" sketch:type="MSShapeGroup" class="st0" d="M229.8,107.3h-0.7c-3.3,0-5.5,1-5.5,3.3c0,1.5,1.2,2.1,2.5,2.1
				c2,0,3.2-1.2,3.8-1.8V107.3L229.8,107.3z M230.4,116.4c-0.2-0.5-0.3-1.5-0.3-2.2c-0.9,1.1-2.8,2.7-5.7,2.7
				c-3.5,0-6.1-2.1-6.1-5.7c0-5.3,5.5-7.2,10.8-7.2h0.7v-1.2c0-1.8-0.7-2.8-3.3-2.8c-2.6,0-4.4,1.4-5.2,1.9l-2.4-3.4
				c1.2-1.1,3.9-2.9,8.2-2.9c5.5,0,8.2,2.1,8.2,7.5v7.3c0,2.8,0.3,4.7,0.6,6H230.4L230.4,116.4z"/>
			<path id="Fill-19" sketch:type="MSShapeGroup" class="st0" d="M251.8,100.9c-0.3-0.2-1-0.5-2.1-0.5c-2.5,0-3.9,2.2-4.4,3.1v12.8
				h-5.5V96h5.5v2.8c0.9-1.5,2.5-3.3,5.1-3.3c1.5,0,2.3,0.3,2.8,0.5L251.8,100.9"/>
			<path id="Fill-20" sketch:type="MSShapeGroup" class="st0" d="M255.2,96h5.9l4.5,13.4h0.2l4.1-13.4h5.7l-8.4,22.5
				c-1.8,4.8-3.9,7.6-9.5,7.6c-1.7,0-2.7-0.3-3.1-0.4l0.8-4.4c0.3,0.1,0.8,0.2,2,0.2c2.8,0,3.8-1.4,4.6-3.6l0.8-2.1L255.2,96"/>
		</g>
		<g>
			<path id="Fill-21" sketch:type="MSShapeGroup" class="st1" d="M75.6,45.4c-0.2,1-0.8,3-1.8,3.1c-1,0.1-1.7-0.9-2.4-1.4
				c-1.2-0.7-2.9-1.1-4.5-1.6c-1.4-0.5-3.2-1-3.8-2.3c-0.8-1.9,1.1-2.9,2.5-3.3c1.3-0.4,2.3-0.6,4-0.6c2.5-0.1,4.9,0.2,5.7,1.8
				C75.8,42,75.9,43.9,75.6,45.4L75.6,45.4z M98.6,46.7c-4.4-2.1-10-3.2-14.1-5.5c-3.3-1.8-5.8-4.8-9.3-6.4c-3.6-1.8-9-3.5-11-4
				c-7.3-1.8-13.4,0.5-15.5,2.2c-4,3.1-7.1,8.2-5.8,15.6c0.5,3.1,1.5,5.7,3,7.9c6.1,8.7,17.6,11.5,26.7,17c0.3,0.2,0.7,0.2,0.9-0.1
				c1.5-2.3,2.8-4.1,5.3-5.1c2.6-1.1,6.7-0.7,10.3-0.5c3.7,0.2,7.6-0.2,9-2.1c1.6-2.3,1.5-6.8-0.9-8.2c-1.3-0.8-3.2-0.8-4.7-1.4
				c-1-0.5-1.8-1.4-2.4-2.6c-0.5-1-0.9-2.8-0.3-3.9c0.6-1,2-0.7,3.2-0.5c2.3,0.5,6.1,1.1,8.3,0.1C101.8,48.6,99.5,47.1,98.6,46.7
				L98.6,46.7z"/>
			<path id="Fill-22" sketch:type="MSShapeGroup" class="st1" d="M6.5,52.8c0.1-0.7,0.2-1,0.6-1.5c0.7-1.1,9.3-10.7,22.6-13.1
				c1.8-0.3,3-0.1,3.3,0.6c0.5,1.2-0.5,1.9-1.7,2.7C10,54.2,11.5,73.3,11.3,81c0.1,3.2-2.2,3.8-2.8,2.3C6,76.4,3.8,65.7,6.5,52.8"/>
			<path id="Fill-23" sketch:type="MSShapeGroup" class="st1" d="M21,24.8c0.4-0.5,0.7-0.7,1.4-0.9c8.2-2,16.4-0.7,22.4,1.9
				c1.3,0.6,1.9,1.4,1.1,2c-1.1,0.6-4.5,2.8-6.3,4.6c-0.5,0.5-1.5,0.5-2.1,0.4c-7-0.9-10.6-1.5-21,2.5c-1.6,0.7-3-0.2-2.3-1.5
				C15.4,31.3,18.7,27.1,21,24.8"/>
			<path id="Fill-24" sketch:type="MSShapeGroup" class="st1" d="M34.5,16.5c-1.8-0.2-1.8-1.5-1.1-2c2-1.4,5.1-3,8.3-4.3
				c1-0.4,1.4-0.5,2.3-0.4c2.3,0.2,6.2,1.8,10.7,5c5.4,3.8,10.1,11.1,6.9,10.5c-2-0.3-1.1-0.3-3.5-0.5c-2.4-0.2-4,0-5.1-0.1
				c-0.5,0-0.9-0.4-1.2-0.6C47.3,20,42.1,17.5,34.5,16.5"/>
			<path id="Fill-25" sketch:type="MSShapeGroup" class="st1" d="M120.4,80.1c-0.5,1.5-1.1,3.4-2.3,2.5c-2.3-1.7-7.3-5-12.2-6.8
				c-0.3-0.1-0.2-0.4-0.1-0.6c0.3-0.8,0.5-1.5,0.7-2.4c0.1-0.9,0.8-1.4,1.2-2.1c1.3-2,1.9-5.5,2.2-7.7c0.2-2,0.1-4.3-0.4-6.1
				c-0.2-0.8-0.8-1.8-0.7-2.7c0-0.9,0.4-1.8,0.5-2.8c0.2-2.9-3.5-5.4-5.5-6.4c-4.6-2.2-9.5-4.1-14.4-6.7c-2.8-1.5-5.1-4.7-7.3-6.5
				c-2.3-1.8-9.6-4.7-12.5-5.4c-0.7-0.2-0.9-0.5-1-1c-1.2-5.8-4.6-12.1-10.9-17c-2-1.6,0.2-2.5,3.1-2.6
				C105.1,4.2,130.7,45.3,120.4,80.1"/>
			<path id="Fill-26" sketch:type="MSShapeGroup" class="st1" d="M102.4,60.4c0-0.2-0.1-1-0.1-1.2c0-0.4,0.8-1,1.2-1.3
				c0.6-0.5,1.3-1,1.7-1.2c0.2-0.1,0.3,0.1,0.3,0.2c1.6,2.5,1,8.7-0.2,11.6c-0.1,0.3-0.4,0.4-0.5,0.2c-0.6-1.3-1.5-2.5-2.5-3.2
				c-0.2-0.1-0.2-0.5-0.2-0.5C102.4,63.6,102.6,62.1,102.4,60.4"/>
			<path id="Fill-27" sketch:type="MSShapeGroup" class="st1" d="M82.1,75.5c0.4-1,0.8-1.6,1.6-2.1c1.5-0.9,4-1,6.4-1.1
				c2.3-0.2,4.8-0.3,6.4-1.1c1-0.5,2-1.8,3.5-1.1c0.7,0.3,1.1,1,1.3,1.7c0.2,0.7,0.4,1.5,0.3,2.5c-0.2,2.9-2.6,4.3-3,7
				c0,0.4-0.1,1-0.3,1.3c-1.8,1.8-5.3,1.4-8.5,1.1c-1.1-0.1-2.3-0.1-3-0.5c-0.6-0.3-1.1-0.8-1.5-1.2c-1-0.9-1.6-1.6-2.6-2.8
				c-0.3-0.4-1.1-1.1-1.2-1.5C81.5,77.2,82,76,82.1,75.5"/>
			<path id="Fill-28" sketch:type="MSShapeGroup" class="st1" d="M26.4,109.4c-1.2-1-1.7-1.8-2.3-2.9c-5.4-8.7-8.5-39.6-1.5-50.1
				c2.2-3.7,4.6-2,3.8,0.9c-1.3,6.4-0.5,9.9,2.6,16.9c4.9,10.3,19.9,24.5,23.8,29.7c6.8,8.9,9.1,15.3,9,17.1c0,1.3-0.3,2.2-2.6,2
				C46.9,122,35,116.8,26.4,109.4"/>
			<path id="Fill-29" sketch:type="MSShapeGroup" class="st1" d="M33.4,67.8c-3.8-9.2-1.3-17.4,0.4-20.6c0.8-1.6,1.7-2.6,2.7-2.3
				c1.2,0.3,1.4,1.5,1.6,3.7c1.2,18.3,12.3,24.5,26.2,31c11,5.6,23.5,12,33.9,27.6c1.6,2.2,1.8,3.6,0,4.9
				c-6.4,4.4-12.2,7.4-20.6,9.4c-1.3,0.3-2.6,0.1-3.7-2.8C62.1,88.3,42.4,89.7,33.4,67.8"/>
			<path id="Fill-30" sketch:type="MSShapeGroup" class="st1" d="M106.2,105.1c-1.8,1.8-2.8,0.4-3.4-0.8c-2.5-5.3-4.9-9.8-8.9-14.1
				c-0.7-0.7-0.2-1.7,0.8-1.6c1.3,0.1,2.1,0,3.5-0.6c1.2-0.5,2.6-2.2,3.2-4.6c0.5-1.8,0.5-2.3,1.6-2.4c0.3,0,0.8,0,1.1,0.1
				c1.3,0.4,2.7,1.4,3.7,2.2c2.6,2,6.6,6.5,7.3,7.9c0.4,0.9,0,1.5-0.2,2.1C113.6,96.2,109.2,102,106.2,105.1"/>
			<path id="Fill-32" sketch:type="MSShapeGroup" class="st0" d="M106.2,105.1c-1.8,1.8-2.8,0.4-3.4-0.8c-2.5-5.3-4.9-9.8-8.9-14.1
				c-0.7-0.7-0.2-1.7,0.8-1.6c1.3,0.1,2.1,0,3.5-0.6c1.2-0.5,2.6-2.2,3.2-4.6c0.5-1.8,0.5-2.3,1.6-2.4c0.3,0,0.8,0,1.1,0.1
				c1.3,0.4,2.7,1.4,3.7,2.2c2.6,2,6.6,6.5,7.3,7.9c0.4,0.9,0,1.5-0.2,2.1C113.6,96.2,109.2,102,106.2,105.1L106.2,105.1z
				 M33.4,67.8c-3.8-9.2-1.3-17.4,0.4-20.6c0.8-1.6,1.7-2.6,2.7-2.3c1.2,0.3,1.4,1.5,1.6,3.7c1.2,18.3,12.3,24.5,26.2,31
				c11,5.6,23.5,12,33.9,27.6c1.6,2.2,1.8,3.6,0,4.9c-6.4,4.4-12.2,7.4-20.6,9.4c-1.3,0.3-2.6,0.1-3.7-2.8
				C62.2,88.3,42.4,89.7,33.4,67.8L33.4,67.8z M6.5,52.8c0.1-0.7,0.2-1,0.6-1.5c0.7-1.1,9.3-10.7,22.6-13.1c1.8-0.3,3-0.1,3.3,0.6
				c0.5,1.2-0.5,1.9-1.7,2.7C10,54.2,11.5,73.2,11.3,81c0.1,3.2-2.2,3.8-2.8,2.3C6,76.4,3.9,65.7,6.5,52.8L6.5,52.8z M21,24.7
				c0.4-0.5,0.7-0.7,1.4-0.9c8.2-2,16.4-0.7,22.4,1.9c1.3,0.6,1.9,1.4,1.1,2c-1.1,0.6-4.5,2.8-6.3,4.6c-0.5,0.5-1.5,0.5-2.1,0.4
				c-7-0.9-10.6-1.5-21,2.5c-1.6,0.7-3-0.2-2.3-1.5C15.4,31.3,18.7,27.1,21,24.7L21,24.7z M82.1,75.5c0.4-1,0.8-1.6,1.6-2.1
				c1.5-0.9,4-1,6.4-1.1c2.3-0.2,4.8-0.3,6.4-1.1c1-0.5,2-1.8,3.5-1.1c0.7,0.3,1.1,1,1.3,1.7c0.2,0.7,0.4,1.5,0.3,2.5
				c-0.2,2.9-2.6,4.3-3,7c0,0.4-0.1,1-0.3,1.3c-1.8,1.8-5.3,1.4-8.5,1.1c-1.1-0.1-2.3-0.1-3-0.5c-0.6-0.3-1.1-0.8-1.5-1.2
				c-1-0.9-1.6-1.6-2.6-2.8c-0.3-0.4-1.1-1.1-1.2-1.5C81.5,77.1,82,76,82.1,75.5L82.1,75.5z M34.5,16.5c-1.8-0.2-1.8-1.5-1.1-2
				c2-1.4,5.1-3,8.3-4.3c1-0.4,1.4-0.5,2.3-0.4c2.3,0.2,6.2,1.8,10.7,5c5.4,3.8,10.1,11.1,6.9,10.5c-2-0.3-1.1-0.3-3.5-0.5
				c-2.4-0.2-4,0-5.1-0.1c-0.5,0-0.9-0.4-1.2-0.6C47.3,20,42.1,17.5,34.5,16.5L34.5,16.5z M48.7,32.9c2.1-1.7,8.2-4,15.5-2.2
				c2.1,0.5,7.4,2.3,11,4c3.5,1.6,6,4.6,9.3,6.4c4.1,2.3,9.8,3.4,14.1,5.5c0.9,0.4,3.2,2,2.5,2.3c-2.2,1-6,0.4-8.3-0.1
				c-1.2-0.3-2.6-0.6-3.2,0.5c-0.6,1.1-0.2,2.8,0.3,3.9c0.6,1.2,1.4,2.1,2.4,2.6c1.4,0.7,3.4,0.7,4.7,1.4c2.4,1.4,2.5,6,0.9,8.2
				c-1.3,1.9-5.3,2.2-9,2.1c-3.5-0.2-7.7-0.5-10.3,0.5c-2.6,1.1-3.8,2.9-5.3,5.1c-0.2,0.3-0.5,0.3-0.9,0.1
				c-9.1-5.5-20.6-8.3-26.7-17c-1.5-2.1-2.5-4.8-3-7.9C41.6,41.1,44.7,36,48.7,32.9L48.7,32.9z M102.4,60.4c0-0.2-0.1-1-0.1-1.2
				c0-0.4,0.8-1,1.2-1.3c0.6-0.5,1.3-1,1.7-1.2c0.2-0.1,0.3,0.1,0.3,0.2c1.6,2.5,1,8.7-0.2,11.6c-0.1,0.3-0.4,0.4-0.5,0.2
				c-0.6-1.3-1.5-2.5-2.5-3.2c-0.2-0.1-0.2-0.5-0.2-0.5C102.4,63.6,102.6,62.1,102.4,60.4L102.4,60.4z M120.4,80.1
				c-0.5,1.5-1.1,3.4-2.3,2.5c-2.3-1.7-7.3-5-12.2-6.8c-0.3-0.1-0.2-0.4-0.1-0.6c0.3-0.8,0.5-1.5,0.7-2.4c0.1-0.9,0.8-1.4,1.2-2.1
				c1.3-2,1.9-5.5,2.2-7.7c0.2-2,0.1-4.3-0.4-6.1c-0.2-0.8-0.8-1.8-0.7-2.7c0-0.9,0.4-1.8,0.5-2.8c0.2-2.9-3.5-5.4-5.5-6.4
				c-4.6-2.2-9.5-4.1-14.4-6.7c-2.8-1.5-5.1-4.7-7.3-6.5c-2.3-1.8-9.6-4.7-12.5-5.4c-0.7-0.2-0.9-0.5-1-1c-1.2-5.8-4.6-12.1-10.9-17
				c-2-1.6,0.2-2.5,3.1-2.6C105.1,4.2,130.7,45.2,120.4,80.1L120.4,80.1z M26.4,109.4c-1.2-1-1.7-1.8-2.3-2.9
				c-5.4-8.7-8.5-39.6-1.5-50.1c2.2-3.7,4.6-2,3.8,0.9c-1.3,6.4-0.5,9.9,2.6,16.9c4.9,10.3,19.9,24.5,23.8,29.7
				c6.8,8.9,9.1,15.3,9,17.1c0,1.3-0.3,2.2-2.6,2C46.9,121.9,35,116.8,26.4,109.4L26.4,109.4z M63.8,0C28.6,0,0,28.7,0,64.3
				c0,35.6,28.8,64.3,63.8,64.3c35.6,0,64.3-28.7,64.3-64.3C128.2,28.7,99.4,0,63.8,0L63.8,0z"/>
			<path id="Fill-34" sketch:type="MSShapeGroup" class="st0" d="M66.9,45.5c1.6,0.5,3.3,1,4.5,1.6c0.7,0.4,1.4,1.5,2.4,1.4
				c1-0.1,1.6-2.1,1.8-3.1c0.3-1.5,0.1-3.4-0.4-4.3c-0.8-1.6-3.2-1.9-5.7-1.8c-1.7,0.1-2.7,0.2-4,0.6c-1.4,0.4-3.3,1.3-2.5,3.3
				C63.6,44.5,65.5,45.1,66.9,45.5"/>
		</g>
	</g>
</g>
</svg>
